<?xml version="1.0" encoding="utf-8"?>
<!-- Generator: Adobe Illustrator 26.5.1, SVG Export Plug-In . SVG Version: 6.00 Build 0)  -->
<svg version="1.1" id="Layer_1" xmlns="http://www.w3.org/2000/svg" xmlns:xlink="http://www.w3.org/1999/xlink" x="0px" y="0px"
	 viewBox="0 0 356.8 338.4" style="enable-background:new 0 0 356.8 338.4;" xml:space="preserve">
<style type="text/css">
	.st0{fill:#E94E1B;}
	.st1{fill:#F28B17;}
	.st2{fill:#D25C15;}
	.st3{fill:#D32316;}
	.st4{fill:#E52230;}
</style>
<path class="st0" d="M182,15.5c-49.8,0-94.6,21.7-125.3,56.1h250.7C276.6,37.2,231.8,15.5,182,15.5z"/>
<g>
	<path class="st1" d="M237.6,95.2c25-2.1,32.2,8.2,37.4,12.2c3.7,2.8,19.4,2.2,18.9,8.8c-0.3,4.1-10,6.2-17.5,8.5
		c-7.3,2.2-9,1.6-23.8,9.7h90.2c-6.3-20.7-16.5-39.7-29.8-56.1H51.1c-13.3,16.4-23.5,35.4-29.8,56.1h141.2
		C188.8,108.1,219,96.7,237.6,95.2z"/>
	<path class="st1" d="M217.9,121.2c-8.5,2.1-17.9,6.6-27.6,13.1h40.4c9.7-6.6,16.2-10,16.2-10S239.7,115.7,217.9,121.2z"/>
</g>
<g>
	<path class="st2" d="M344.5,140.8H240.7c-5.4,3.5-10.4,7.1-14.5,10.1c1.1,6.3,2.3,20-4.3,32.1c-2.8,5.1-6.4,9.8-10,13.9h137.5
		c0.4-4.4,0.5-8.9,0.5-13.5C350,168.7,348.1,154.4,344.5,140.8z"/>
	<path class="st2" d="M200.2,174.3L200.2,174.3c-6,6.4-11.5,12.1-19.3,22.6H203c0.7-2,1.2-4,1.6-5.9
		C205.8,184.2,202.5,177.7,200.2,174.3z"/>
	<path class="st2" d="M181,140.8c-8.8,7.1-17.6,15.8-26.1,26.1c-9.1,11-15.6,20.9-20.3,30h34.8c10.5-18.2,21.5-31.7,38.9-46.2
		c4.4-3.7,8.7-7,12.6-9.9H181z"/>
	<path class="st2" d="M115.6,181.7c-7.6-4.4-24.9,4.2-24.9,4.2s5.7-8,19.3-17.1c12.8-8.6,28.7-10.4,31.4-11c4.2-5.3,9-11,14.7-17.1
		H19.5c-3.6,13.6-5.5,27.9-5.5,42.7c0,4.5,0.2,9,0.5,13.5h104.8C120.3,193.1,121.4,185.1,115.6,181.7z"/>
</g>
<g>
	<path class="st3" d="M114,219.3c1.2-5.6,2.5-10.8,3.9-15.8H15.2c2.4,20,8.3,38.9,17,56.1h78.3C110,246.2,110.9,233.7,114,219.3z"/>
	<path class="st3" d="M206.2,203.5c-5.5,5.4-9.9,8.7-9.9,8.7s2.3-3.7,4.6-8.7h-24.2c-2.2,3.2-4.6,6.7-7.3,10.7
		c-13.2,20-18.5,38.5-18.5,38.5s1.7-23.6,15.3-49.1h-34.3c-8,18.1-9.6,33.7-12.3,50.5c-0.3,1.8-0.5,3.7-0.8,5.6h212.9
		c8.8-17.2,14.7-36.1,17-56.1H206.2z"/>
</g>
<g>
	<path class="st4" d="M142.5,281.9c4.2-0.6,8.8,0.3,11.8,3.5c2.5,2.7,3.1,7.6-1.1,8.7c-0.1-3.4-3.5-5.7-4.7-1.3
		c-2.3,8.6,11.1,12.4,17.1,12.4c8.3,0.1,17.6-2.2,24.4-7.1c8.6-6.1,15-15,26.2-16.3c4-0.5,8.5,0.5,11.3,3.6c2.9,3.1,2.7,7.7-1.6,9.2
		c0.4-2.4-1.3-6.5-3.7-3.1c-5.5,8,10.3,13.7,15.7,13.7c8.5,0.1,17.8-2,24.9-6.8c8.8-5.9,15-15,26.2-16.6c4.2-0.6,8.8,0.3,11.8,3.5
		c2.5,2.7,3.1,7.6-1.1,8.7c-0.1-2.6-2.4-5.9-4.4-2.2c-1.4,2.7,0.2,6,2.2,8c1,1,2,1.8,3.2,2.4c10.7-10.7,20-22.8,27.5-36H118.3
		c-0.7,10.5-0.4,21.4,0.2,30.5C126.2,291,132.3,283.4,142.5,281.9z"/>
	<path class="st4" d="M67.1,282.3c4.5-1.1,9.6-0.8,13.2,2.4c3.4,2.9,4,8.3-0.8,9.9c0.4-2.4-1.3-6.5-3.7-3.1
		c-5.5,8,10.3,13.7,15.7,13.7c8,0.1,16.7-1.7,23.7-6c-1.1-4.9-2.1-10.4-2.7-16l0,0c-0.7-5.9-1.2-11.5-1.6-16.9h-75
		c4.9,8.6,10.5,16.7,16.8,24.3C56.9,287,61.3,283.7,67.1,282.3z"/>
</g>
</svg>
